<svg height="512" viewBox="0 0 512 512" width="512" xmlns="http://www.w3.org/2000/svg" isolation="isolate"><g fill-rule="evenodd"><path d="m178.84 25.26h154.32c10.25 0 20.09 4.07 27.33 11.32 7.25 7.24 11.32 17.08 11.32 27.33v384.18c0 10.25-4.07 20.09-11.32 27.33-7.24 7.25-17.08 11.32-27.33 11.32h-154.32c-10.25 0-20.09-4.07-27.33-11.32-7.25-7.24-11.32-17.08-11.32-27.33v-384.18c0-10.25 4.07-20.09 11.32-27.33 7.24-7.25 17.08-11.32 27.33-11.32zm0 15h154.32c6.27 0 12.29 2.49 16.73 6.93 4.43 4.43 6.92 10.45 6.92 16.72v384.18c0 6.27-2.49 12.29-6.92 16.72-4.44 4.44-10.46 6.93-16.73 6.93h-154.32c-6.27 0-12.29-2.49-16.73-6.93-4.43-4.43-6.92-10.45-6.92-16.72v-384.18c0-6.27 2.49-12.29 6.92-16.72 4.44-4.44 10.46-6.93 16.73-6.93z"/><path d="m270.17 47.17c.66 0 1.3.26 1.76.73.47.47.74 1.1.74 1.77 0 .66-.27 1.3-.74 1.76-.46.47-1.1.74-1.76.74h-28.34c-.66 0-1.3-.27-1.76-.74-.47-.46-.74-1.1-.74-1.76 0-.67.27-1.3.74-1.77.46-.47 1.1-.73 1.76-.73zm-69.616-10.17h110.892v15.384c0 5.626-4.567 10.194-10.194 10.194h-90.504c-5.627 0-10.194-4.568-10.194-10.194zm76.807 12.652c0-1.374 1.115-2.489 2.489-2.489s2.49 1.115 2.49 2.489-1.116 2.49-2.49 2.49-2.489-1.116-2.489-2.49z"/></g></svg>